<svg xmlns="http://www.w3.org/2000/svg" width="375" viewBox="0 0 375 375" height="375" version="1.0"><defs><clipPath id="a"><path d="M 54 289 L 64 289 L 64 296.910156 L 54 296.910156 Z M 54 289"/></clipPath><clipPath id="b"><path d="M 163 129 L 189.75 129 L 189.75 177 L 163 177 Z M 163 129"/></clipPath><clipPath id="c"><path d="M 0 74.910156 L 157 74.910156 L 157 273 L 0 273 Z M 0 74.910156"/></clipPath></defs><g clip-path="url(#a)"><path fill="#F6F6E9" d="M 63.269531 293.445312 L 63.269531 289.746094 L 54.480469 289.746094 L 54.480469 293.445312 L 58.875 296.910156 L 63.269531 293.445312"/></g><path fill="#F6F6E9" d="M 54.480469 275.425781 L 54.480469 286.511719 L 63.269531 286.511719 L 63.269531 275.425781 L 54.480469 275.425781"/><g clip-path="url(#b)"><path fill="#F6F6E9" d="M 174.90625 129.410156 L 163.828125 129.410156 L 163.828125 176.59375 L 174.90625 176.59375 C 183.082031 176.59375 189.714844 169.972656 189.714844 161.804688 L 189.714844 144.203125 C 189.714844 136.03125 183.082031 129.410156 174.90625 129.410156"/></g><g clip-path="url(#c)"><path fill="#F6F6E9" d="M 113.285156 74.910156 L 76.398438 74.910156 C 58.992188 74.910156 44.886719 89 44.886719 106.382812 C 44.886719 123.765625 58.992188 137.859375 76.398438 137.859375 L 103.671875 137.859375 C 110.78125 137.859375 116.535156 143.769531 116.265625 150.933594 C 116.007812 157.742188 110.1875 163.035156 103.359375 163.035156 L 20.082031 163.035156 C 9.015625 163.035156 0.0546875 172.191406 0.382812 183.316406 C 0.703125 194.023438 9.777344 202.40625 20.503906 202.40625 L 77.664062 202.40625 C 80.089844 202.40625 82.039062 204.496094 81.796875 206.96875 C 81.585938 209.125 79.648438 210.703125 77.480469 210.703125 L 39.292969 210.703125 C 28.433594 210.703125 19.636719 219.6875 19.960938 230.605469 C 20.273438 241.113281 29.179688 249.339844 39.703125 249.339844 L 52.058594 249.339844 L 52.058594 262.386719 C 52.058594 263.8125 53.109375 264.996094 54.484375 265.207031 L 54.484375 272.191406 L 63.269531 272.191406 L 63.269531 265.195312 C 64.613281 264.960938 65.632812 263.792969 65.632812 262.386719 L 65.632812 235.777344 L 39.292969 235.777344 C 35.863281 235.777344 33.125 232.777344 33.574219 229.265625 C 33.949219 226.359375 36.5625 224.261719 39.492188 224.261719 L 77.664062 224.261719 C 87.664062 224.261719 95.757812 215.945312 95.378906 205.871094 C 95.015625 196.289062 86.828125 188.847656 77.230469 188.847656 L 20.082031 188.847656 C 16.5625 188.847656 13.722656 185.867188 13.964844 182.300781 C 14.175781 179.152344 17.140625 176.59375 20.300781 176.59375 L 103.179688 176.59375 C 117.472656 176.59375 129.5 165.351562 129.839844 151.078125 C 130.1875 136.375 118.3125 124.300781 103.671875 124.300781 L 76.398438 124.300781 C 66.492188 124.300781 58.460938 116.277344 58.460938 106.382812 C 58.460938 96.488281 66.492188 88.464844 76.398438 88.464844 L 113.863281 88.464844 C 129.730469 88.464844 142.59375 101.316406 142.59375 117.167969 L 142.59375 176.59375 L 156.167969 176.59375 L 156.167969 117.738281 C 156.167969 94.085938 136.96875 74.910156 113.285156 74.910156"/></g><g fill="#CB6CE6"><g><g><path d="M 58.738281 -7.207031 L 58.738281 -55.195312 C 58.738281 -59.9375 56.335938 -62.28125 51.53125 -62.28125 L 27.625 -62.339844 C 13.210938 -62.339844 6.003906 -54.953125 6.003906 -40.238281 L 6.003906 -7.085938 C 6.003906 -2.28125 8.40625 0.121094 13.210938 0.121094 C 18.015625 0.121094 20.417969 -2.34375 20.417969 -7.207031 L 20.480469 -19.21875 L 44.324219 -19.160156 L 44.324219 -7.207031 C 44.324219 -2.34375 46.785156 0.121094 51.710938 0.121094 C 56.394531 0.121094 58.738281 -2.34375 58.738281 -7.207031 Z M 20.417969 -33.632812 L 20.417969 -40.539062 C 20.417969 -45.464844 22.882812 -47.925781 27.746094 -47.925781 L 44.324219 -47.925781 L 44.324219 -33.632812 Z M 20.417969 -33.632812" transform="translate(77.534 246.74)"/></g></g></g><g fill="#CB6CE6"><g><g><path d="M 51.890625 -62.519531 C 47.027344 -62.519531 44.5625 -60.058594 44.5625 -55.195312 L 44.5625 -14.472656 L 27.746094 -14.472656 C 22.882812 -14.472656 20.417969 -16.9375 20.417969 -21.859375 L 20.417969 -55.195312 C 20.417969 -60.058594 18.015625 -62.519531 13.210938 -62.519531 C 8.40625 -62.519531 6.003906 -60.117188 6.003906 -55.3125 L 6.003906 -22.160156 C 6.003906 -7.445312 13.210938 -0.0585938 27.625 -0.0585938 L 51.769531 0 C 56.574219 0 58.976562 -2.34375 58.976562 -7.085938 L 58.976562 -55.195312 C 58.976562 -60.058594 56.636719 -62.519531 51.890625 -62.519531 Z M 51.890625 -62.519531" transform="translate(136.367 246.74)"/></g></g></g><g fill="#CB6CE6"><g><g><path d="M 58.976562 -7.207031 L 58.976562 -74.53125 C 58.976562 -79.277344 56.574219 -81.679688 51.769531 -81.679688 C 46.964844 -81.679688 44.5625 -79.21875 44.5625 -74.351562 L 44.5625 -62.339844 L 27.625 -62.339844 C 13.210938 -62.339844 6.003906 -54.953125 6.003906 -40.238281 L 6.003906 -21.5 C 6.003906 -7.085938 13.273438 0.121094 27.746094 0.121094 L 51.890625 0.121094 C 56.636719 0.121094 58.976562 -2.34375 58.976562 -7.207031 Z M 27.746094 -14.355469 C 22.882812 -14.355469 20.417969 -16.695312 20.417969 -21.320312 L 20.417969 -40.539062 C 20.417969 -45.464844 22.882812 -47.925781 27.746094 -47.925781 L 44.5625 -47.925781 L 44.5625 -14.355469 Z M 27.746094 -14.355469" transform="translate(195.2 246.74)"/></g></g></g><g fill="#CB6CE6"><g><g><path d="M 27.746094 -7.328125 L 27.746094 -55.195312 C 27.746094 -59.9375 25.34375 -62.402344 20.539062 -62.460938 L 13.332031 -62.339844 C 8.527344 -62.28125 6.125 -59.757812 6.125 -54.894531 C 6.066406 -50.269531 8.46875 -47.925781 13.332031 -47.925781 L 13.332031 -7.328125 C 13.332031 -2.460938 15.734375 0 20.601562 0 C 25.34375 0 27.746094 -2.460938 27.746094 -7.328125 Z M 20.121094 -81.621094 C 16.457031 -81.859375 12.792969 -78.316406 12.972656 -74.472656 C 12.851562 -70.808594 16.394531 -67.207031 20.121094 -67.386719 C 23.84375 -67.207031 27.386719 -70.808594 27.265625 -74.472656 C 27.445312 -78.316406 23.78125 -81.859375 20.121094 -81.621094 Z M 20.121094 -81.621094" transform="translate(254.033 246.74)"/></g></g></g><g fill="#CB6CE6"><g><g><path d="M 6.003906 -40.71875 L 6.003906 -21.621094 C 6.003906 -7.207031 13.152344 0 27.507812 0 L 37.355469 0 C 51.769531 0 58.976562 -7.386719 58.976562 -22.101562 L 58.976562 -40.78125 C 58.976562 -55.253906 51.710938 -62.460938 37.234375 -62.460938 L 27.6875 -62.460938 C 13.210938 -62.460938 6.003906 -55.195312 6.003906 -40.71875 Z M 37.234375 -47.925781 C 42.101562 -47.925781 44.5625 -45.585938 44.5625 -40.960938 L 44.5625 -21.800781 C 44.5625 -16.875 42.101562 -14.414062 37.234375 -14.414062 L 27.507812 -14.414062 C 22.761719 -14.414062 20.417969 -16.875 20.417969 -21.800781 L 20.417969 -40.78125 C 20.417969 -45.523438 22.761719 -47.925781 27.507812 -47.925781 Z M 37.234375 -47.925781" transform="translate(281.695 246.74)"/></g></g></g><g fill="#F6F6E9"><g><g><path d="M 5.535156 0.0507812 C 7.59375 0.0507812 8.632812 -0.992188 8.632812 -3.046875 L 8.632812 -20.265625 L 15.746094 -20.265625 C 17.800781 -20.265625 18.84375 -19.222656 18.84375 -17.140625 L 18.84375 -3.046875 C 18.84375 -0.992188 19.859375 0.0507812 21.890625 0.0507812 C 23.921875 0.0507812 24.9375 -0.964844 24.9375 -2.996094 L 24.9375 -17.015625 C 24.9375 -23.234375 21.890625 -26.359375 15.796875 -26.359375 L 8.632812 -26.359375 L 8.632812 -31.4375 C 8.632812 -33.496094 7.617188 -34.535156 5.585938 -34.535156 C 3.554688 -34.535156 2.539062 -33.519531 2.539062 -31.515625 L 2.539062 -3.046875 C 2.539062 -0.992188 3.53125 0.0507812 5.535156 0.0507812 Z M 5.535156 0.0507812" transform="translate(106.985 285.518)"/></g></g></g><g fill="#F6F6E9"><g><g><path d="M 24.835938 -3.046875 L 24.835938 -23.335938 C 24.835938 -25.34375 23.820312 -26.332031 21.789062 -26.332031 L 11.679688 -26.359375 C 5.585938 -26.359375 2.539062 -23.234375 2.539062 -17.015625 L 2.539062 -2.996094 C 2.539062 -0.964844 3.554688 0.0507812 5.585938 0.0507812 C 7.617188 0.0507812 8.632812 -0.992188 8.632812 -3.046875 L 8.660156 -8.125 L 18.742188 -8.101562 L 18.742188 -3.046875 C 18.742188 -0.992188 19.78125 0.0507812 21.863281 0.0507812 C 23.84375 0.0507812 24.835938 -0.992188 24.835938 -3.046875 Z M 8.632812 -14.21875 L 8.632812 -17.140625 C 8.632812 -19.222656 9.675781 -20.265625 11.730469 -20.265625 L 18.742188 -20.265625 L 18.742188 -14.21875 Z M 8.632812 -14.21875" transform="translate(131.287 285.518)"/></g></g></g><g fill="#F6F6E9"><g><g><path d="M 19.453125 -26.433594 C 18.207031 -26.382812 17.394531 -26.003906 16.964844 -25.316406 C 16.558594 -24.632812 14.652344 -19.222656 11.273438 -9.089844 C 7.847656 -19.222656 5.96875 -24.65625 5.585938 -25.367188 C 5.207031 -26.078125 4.394531 -26.433594 3.097656 -26.433594 C 1.066406 -26.433594 0.0507812 -25.417969 0.0507812 -23.386719 L 8.203125 -2.007812 C 8.761719 -0.863281 9.371094 -0.230469 10.054688 -0.101562 C 10.742188 0 11.503906 0.0273438 12.289062 -0.0507812 C 13.078125 -0.128906 13.738281 -0.761719 14.21875 -2.007812 L 22.449219 -23.335938 C 22.449219 -25.394531 21.457031 -26.433594 19.453125 -26.433594 Z M 19.453125 -26.433594" transform="translate(155.59 285.518)"/></g></g></g><g fill="#F6F6E9"><g><g><path d="M 21.941406 -6.019531 L 11.730469 -6.042969 C 9.675781 -6.042969 8.632812 -7.085938 8.632812 -9.140625 L 8.632812 -10.15625 L 17.828125 -10.183594 C 19.859375 -10.183594 20.875 -11.171875 20.847656 -13.152344 C 20.847656 -15.210938 19.808594 -16.277344 17.75 -16.304688 L 8.632812 -16.253906 L 8.632812 -20.316406 L 21.789062 -20.316406 C 23.84375 -20.339844 24.886719 -21.355469 24.910156 -23.335938 C 24.910156 -25.367188 23.84375 -26.382812 21.710938 -26.359375 L 5.585938 -26.359375 C 3.554688 -26.359375 2.539062 -25.34375 2.539062 -23.3125 L 2.539062 -9.292969 C 2.539062 -3.074219 5.585938 0.0507812 11.679688 0.0507812 L 21.890625 0.0507812 C 23.921875 0.0507812 24.9375 -0.941406 24.9375 -2.945312 C 24.9375 -5.003906 23.945312 -6.019531 21.941406 -6.019531 Z M 21.941406 -6.019531" transform="translate(175.016 285.518)"/></g></g></g><g fill="#F6F6E9"><g><g><path d="M 5.535156 0 C 7.59375 0 8.632812 -1.015625 8.632812 -3.074219 L 8.632812 -20.265625 L 15.746094 -20.265625 C 17.800781 -20.265625 18.84375 -19.222656 18.84375 -17.140625 L 18.84375 -3.046875 C 18.84375 -0.992188 19.859375 0.0507812 21.890625 0.0507812 C 23.921875 0.0507812 24.9375 -0.964844 24.9375 -2.996094 L 24.9375 -17.015625 C 24.9375 -23.234375 21.890625 -26.359375 15.796875 -26.359375 L 5.585938 -26.332031 C 3.554688 -26.332031 2.539062 -25.34375 2.539062 -23.335938 L 2.539062 -3.074219 C 2.539062 -1.015625 3.53125 0 5.535156 0 Z M 5.535156 0" transform="translate(199.319 285.518)"/></g></g></g></svg>